<mxfile host="app.diagrams.net" modified="2023-03-21T09:00:42.846Z" agent="5.0 (Windows NT 10.0; Win64; x64) AppleWebKit/537.36 (KHTML, like Gecko) Chrome/110.0.0.0 Safari/537.36" etag="Hw2I1K_0dgngN8bn_K-v" version="21.0.8" type="github">
  <diagram name="Page-1" id="13e1069c-82ec-6db2-03f1-153e76fe0fe0">
    <mxGraphModel dx="1127" dy="513" grid="1" gridSize="10" guides="1" tooltips="1" connect="1" arrows="1" fold="1" page="1" pageScale="1" pageWidth="1100" pageHeight="850" background="none" math="0" shadow="0">
      <root>
        <mxCell id="0" />
        <mxCell id="1" parent="0" />
        <mxCell id="3MUaswE4cRUnLZ2B58mU-1" value="" style="rounded=0;whiteSpace=wrap;html=1;" vertex="1" parent="1">
          <mxGeometry x="240" y="90" width="530" height="370" as="geometry" />
        </mxCell>
        <mxCell id="3MUaswE4cRUnLZ2B58mU-2" value="战斗服" style="text;html=1;align=center;verticalAlign=middle;resizable=0;points=[];autosize=1;strokeColor=none;fillColor=none;fontStyle=1" vertex="1" parent="1">
          <mxGeometry x="235" y="90" width="60" height="30" as="geometry" />
        </mxCell>
        <mxCell id="3MUaswE4cRUnLZ2B58mU-6" value="" style="rounded=0;whiteSpace=wrap;html=1;" vertex="1" parent="1">
          <mxGeometry x="320" y="148" width="120" height="260" as="geometry" />
        </mxCell>
        <mxCell id="3MUaswE4cRUnLZ2B58mU-3" value="" style="html=1;points=[];perimeter=orthogonalPerimeter;outlineConnect=0;targetShapes=umlLifeline;portConstraint=eastwest;newEdgeStyle={&quot;edgeStyle&quot;:&quot;elbowEdgeStyle&quot;,&quot;elbow&quot;:&quot;vertical&quot;,&quot;curved&quot;:0,&quot;rounded&quot;:0};" vertex="1" parent="1">
          <mxGeometry x="350" y="185" width="10" height="180" as="geometry" />
        </mxCell>
        <mxCell id="3MUaswE4cRUnLZ2B58mU-4" value="" style="html=1;points=[];perimeter=orthogonalPerimeter;outlineConnect=0;targetShapes=umlLifeline;portConstraint=eastwest;newEdgeStyle={&quot;edgeStyle&quot;:&quot;elbowEdgeStyle&quot;,&quot;elbow&quot;:&quot;vertical&quot;,&quot;curved&quot;:0,&quot;rounded&quot;:0};" vertex="1" parent="1">
          <mxGeometry x="380" y="185" width="10" height="180" as="geometry" />
        </mxCell>
        <mxCell id="3MUaswE4cRUnLZ2B58mU-5" value="" style="html=1;points=[];perimeter=orthogonalPerimeter;outlineConnect=0;targetShapes=umlLifeline;portConstraint=eastwest;newEdgeStyle={&quot;edgeStyle&quot;:&quot;elbowEdgeStyle&quot;,&quot;elbow&quot;:&quot;vertical&quot;,&quot;curved&quot;:0,&quot;rounded&quot;:0};" vertex="1" parent="1">
          <mxGeometry x="410" y="185" width="10" height="180" as="geometry" />
        </mxCell>
        <mxCell id="3MUaswE4cRUnLZ2B58mU-7" value="子线程" style="text;html=1;align=center;verticalAlign=middle;resizable=0;points=[];autosize=1;strokeColor=none;fillColor=none;" vertex="1" parent="1">
          <mxGeometry x="320" y="148" width="60" height="30" as="geometry" />
        </mxCell>
        <mxCell id="3MUaswE4cRUnLZ2B58mU-8" value="分片处理、&lt;br&gt;数据hook保存" style="text;html=1;align=left;verticalAlign=middle;resizable=0;points=[];autosize=1;strokeColor=none;fillColor=none;" vertex="1" parent="1">
          <mxGeometry x="320" y="368" width="100" height="40" as="geometry" />
        </mxCell>
        <mxCell id="3MUaswE4cRUnLZ2B58mU-9" value="处理玩家战斗等核心逻辑" style="rounded=0;whiteSpace=wrap;html=1;" vertex="1" parent="1">
          <mxGeometry x="560" y="148" width="140" height="262" as="geometry" />
        </mxCell>
        <mxCell id="3MUaswE4cRUnLZ2B58mU-13" value="" style="shape=flexArrow;endArrow=classic;html=1;rounded=0;" edge="1" parent="1">
          <mxGeometry width="50" height="50" relative="1" as="geometry">
            <mxPoint x="445" y="275.5" as="sourcePoint" />
            <mxPoint x="555" y="276" as="targetPoint" />
          </mxGeometry>
        </mxCell>
        <mxCell id="3MUaswE4cRUnLZ2B58mU-14" value="分片数据" style="text;html=1;align=center;verticalAlign=middle;resizable=0;points=[];autosize=1;strokeColor=none;fillColor=none;" vertex="1" parent="1">
          <mxGeometry x="460" y="240" width="70" height="30" as="geometry" />
        </mxCell>
        <mxCell id="3MUaswE4cRUnLZ2B58mU-16" value="" style="rounded=0;whiteSpace=wrap;html=1;" vertex="1" parent="1">
          <mxGeometry x="920" y="80" width="210" height="370" as="geometry" />
        </mxCell>
        <mxCell id="3MUaswE4cRUnLZ2B58mU-17" value="主线程" style="text;html=1;align=center;verticalAlign=middle;resizable=0;points=[];autosize=1;strokeColor=none;fillColor=none;" vertex="1" parent="1">
          <mxGeometry x="555" y="148" width="60" height="30" as="geometry" />
        </mxCell>
        <mxCell id="3MUaswE4cRUnLZ2B58mU-18" value="录像微服务" style="text;html=1;align=center;verticalAlign=middle;resizable=0;points=[];autosize=1;strokeColor=none;fillColor=none;fontStyle=1" vertex="1" parent="1">
          <mxGeometry x="920" y="90" width="80" height="30" as="geometry" />
        </mxCell>
        <mxCell id="3MUaswE4cRUnLZ2B58mU-19" value="zlib压缩" style="rounded=0;whiteSpace=wrap;html=1;" vertex="1" parent="1">
          <mxGeometry x="965" y="148" width="120" height="35" as="geometry" />
        </mxCell>
        <mxCell id="3MUaswE4cRUnLZ2B58mU-20" value="请求s3数据落盘" style="rounded=0;whiteSpace=wrap;html=1;" vertex="1" parent="1">
          <mxGeometry x="965" y="290" width="120" height="35" as="geometry" />
        </mxCell>
        <mxCell id="3MUaswE4cRUnLZ2B58mU-21" value="唯一id生成" style="rounded=0;whiteSpace=wrap;html=1;" vertex="1" parent="1">
          <mxGeometry x="965" y="220" width="120" height="35" as="geometry" />
        </mxCell>
        <mxCell id="3MUaswE4cRUnLZ2B58mU-22" value="存储重试机制" style="rounded=0;whiteSpace=wrap;html=1;" vertex="1" parent="1">
          <mxGeometry x="970" y="365" width="120" height="35" as="geometry" />
        </mxCell>
        <mxCell id="3MUaswE4cRUnLZ2B58mU-24" value="" style="shape=flexArrow;endArrow=classic;html=1;rounded=0;" edge="1" parent="1">
          <mxGeometry width="50" height="50" relative="1" as="geometry">
            <mxPoint x="710" y="224" as="sourcePoint" />
            <mxPoint x="910" y="224" as="targetPoint" />
          </mxGeometry>
        </mxCell>
        <mxCell id="3MUaswE4cRUnLZ2B58mU-25" value="录像原始分片数据" style="text;html=1;align=center;verticalAlign=middle;resizable=0;points=[];autosize=1;strokeColor=none;fillColor=none;" vertex="1" parent="1">
          <mxGeometry x="750" y="189" width="120" height="30" as="geometry" />
        </mxCell>
        <mxCell id="3MUaswE4cRUnLZ2B58mU-26" value="" style="shape=flexArrow;endArrow=classic;html=1;rounded=0;" edge="1" parent="1">
          <mxGeometry width="50" height="50" relative="1" as="geometry">
            <mxPoint x="910" y="340" as="sourcePoint" />
            <mxPoint x="710" y="340" as="targetPoint" />
          </mxGeometry>
        </mxCell>
        <mxCell id="3MUaswE4cRUnLZ2B58mU-27" value="对局录像数据" style="text;html=1;align=center;verticalAlign=middle;resizable=0;points=[];autosize=1;strokeColor=none;fillColor=none;" vertex="1" parent="1">
          <mxGeometry x="760" y="310" width="100" height="30" as="geometry" />
        </mxCell>
      </root>
    </mxGraphModel>
  </diagram>
</mxfile>
